<mxfile host="Electron" modified="2023-11-29T07:11:58.482Z" agent="Mozilla/5.0 (Windows NT 10.0; Win64; x64) AppleWebKit/537.36 (KHTML, like Gecko) draw.io/22.1.2 Chrome/114.0.5735.289 Electron/25.9.4 Safari/537.36" etag="p1KisXah2mn6_DHZasRP" version="22.1.2" type="device">
  <diagram name="Страница — 1" id="nWZQLlQI80qdNhBuRFW2">
    <mxGraphModel dx="548" dy="654" grid="1" gridSize="10" guides="1" tooltips="1" connect="1" arrows="1" fold="1" page="1" pageScale="1" pageWidth="827" pageHeight="1169" math="0" shadow="0">
      <root>
        <mxCell id="0" />
        <mxCell id="1" parent="0" />
        <mxCell id="RJVQPDSYyX4ddngjG3QX-4" value="" style="edgeStyle=orthogonalEdgeStyle;rounded=0;orthogonalLoop=1;jettySize=auto;html=1;" parent="1" source="RJVQPDSYyX4ddngjG3QX-2" target="RJVQPDSYyX4ddngjG3QX-3" edge="1">
          <mxGeometry relative="1" as="geometry" />
        </mxCell>
        <mxCell id="RJVQPDSYyX4ddngjG3QX-2" value="Початок" style="ellipse;whiteSpace=wrap;html=1;" parent="1" vertex="1">
          <mxGeometry x="380" y="80" width="120" height="80" as="geometry" />
        </mxCell>
        <mxCell id="RJVQPDSYyX4ddngjG3QX-6" value="" style="edgeStyle=orthogonalEdgeStyle;rounded=0;orthogonalLoop=1;jettySize=auto;html=1;" parent="1" source="RJVQPDSYyX4ddngjG3QX-3" target="RJVQPDSYyX4ddngjG3QX-5" edge="1">
          <mxGeometry relative="1" as="geometry" />
        </mxCell>
        <mxCell id="RJVQPDSYyX4ddngjG3QX-3" value="int result = count_of_pairs(3, 4, 3, 3, 4, 2)" style="whiteSpace=wrap;html=1;" parent="1" vertex="1">
          <mxGeometry x="380" y="250" width="120" height="60" as="geometry" />
        </mxCell>
        <mxCell id="RJVQPDSYyX4ddngjG3QX-8" value="" style="edgeStyle=orthogonalEdgeStyle;rounded=0;orthogonalLoop=1;jettySize=auto;html=1;" parent="1" source="RJVQPDSYyX4ddngjG3QX-5" target="RJVQPDSYyX4ddngjG3QX-7" edge="1">
          <mxGeometry relative="1" as="geometry" />
        </mxCell>
        <mxCell id="RJVQPDSYyX4ddngjG3QX-5" value="return 0" style="whiteSpace=wrap;html=1;" parent="1" vertex="1">
          <mxGeometry x="380" y="390" width="120" height="60" as="geometry" />
        </mxCell>
        <mxCell id="RJVQPDSYyX4ddngjG3QX-7" value="Кінець&amp;nbsp;" style="ellipse;whiteSpace=wrap;html=1;" parent="1" vertex="1">
          <mxGeometry x="380" y="505" width="120" height="80" as="geometry" />
        </mxCell>
        <mxCell id="RJVQPDSYyX4ddngjG3QX-9" value="Ініцілізація функції підрахуку пар" style="text;html=1;align=center;verticalAlign=middle;resizable=0;points=[];autosize=1;strokeColor=none;fillColor=none;" parent="1" vertex="1">
          <mxGeometry x="560" y="250" width="210" height="30" as="geometry" />
        </mxCell>
        <mxCell id="RJVQPDSYyX4ddngjG3QX-10" value="" style="strokeWidth=2;html=1;shape=mxgraph.flowchart.annotation_2;align=left;labelPosition=right;pointerEvents=1;" parent="1" vertex="1">
          <mxGeometry x="530" y="230" width="50" height="100" as="geometry" />
        </mxCell>
        <mxCell id="RJVQPDSYyX4ddngjG3QX-11" value="" style="endArrow=none;dashed=1;html=1;dashPattern=1 3;strokeWidth=2;rounded=0;exitX=1;exitY=0.5;exitDx=0;exitDy=0;entryX=0;entryY=0.5;entryDx=0;entryDy=0;entryPerimeter=0;" parent="1" source="RJVQPDSYyX4ddngjG3QX-3" target="RJVQPDSYyX4ddngjG3QX-10" edge="1">
          <mxGeometry width="50" height="50" relative="1" as="geometry">
            <mxPoint x="630" y="350" as="sourcePoint" />
            <mxPoint x="680" y="300" as="targetPoint" />
          </mxGeometry>
        </mxCell>
      </root>
    </mxGraphModel>
  </diagram>
</mxfile>
